<svg xmlns="http://www.w3.org/2000/svg" xmlns:xlink="http://www.w3.org/1999/xlink" viewBox="0 0 543.7 530.7" xmlns:v="https://vecta.io/nano"><title>Corelia</title><path d="M303.5 407.4c-148.1 43.6-256.3-8.5-274-57.2-17.6-48.7-1.5-99.6 86.7-138.1 89.5-39.1 205.4-24.8 270.2-7.7 51.9 13.7 94.8 33.2 119.3 73.6 26.8 44.1-8.2 66.1-17.4 69.7-48.9 18.7 85.8-23.4-69.5-68.3-104.4-30.2-157.5-29.8-206.2-24.1-68.6 8.1-141.5 55.5-99.2 91.5 37.3 31.7 95.9 45.2 137 51.2 63.5 9.2 120.2-10.4 53.1 9.4" fill="#73be8e"/><defs><path id="A" d="M524 184.3c30.5 69.3-58.8 180.6-199.3 248.7s-279.1 67.1-309.6-2.1c-8.4-19.1-7.7-41.4.7-65.1-16.6 32.8-20.8 64.1-9.4 90 32.2 73.3 177.2 75.2 323.8 4.1 146.6-71 239.3-188.1 207.1-261.4-4.8-10.8-12-20.1-21.3-27.8 3.2 4.3 5.9 8.8 8 13.6"/></defs><clipPath id="B"><use xlink:href="#A"/></clipPath><linearGradient id="C" gradientUnits="userSpaceOnUse" x1="0" y1="350.878" x2="543.741" y2="350.878"><stop offset="0" stop-color="#9dd6ed"/><stop offset=".039" stop-color="#8ccdca"/><stop offset=".078" stop-color="#7fc5ae"/><stop offset=".117" stop-color="#76c09a"/><stop offset=".156" stop-color="#70bd8e"/><stop offset=".196" stop-color="#6ebc8a"/><stop offset=".371" stop-color="#55a598"/><stop offset=".628" stop-color="#3688a9"/><stop offset=".846" stop-color="#2476b3"/><stop offset="1" stop-color="#1d70b7"/></linearGradient><path d="M-5 170.8h574.5V531H-5z" clip-path="url(#B)" fill="url(#C)"/><defs><path id="D" d="M119.8 218.2c-38.7 16-81.7 40.7-78.6 66.9 4 34.3 65.2 77.3 104.4 83-13.5-6.2-28.1-14.7-37.3-26.7-14.8-19.2 7.9-72.2 81.9-80.7 52.4-6.1 110.8-11.5 223 16.6 15.9 4 28.7 9.5 38.5 13.9 21.4 9.6 29.3 18.7 31.1 26.4l3.1-3.4c10.7-8.8-1.1-41.5-58.4-74.6-42.1-24.4-107.3-34.2-127-36.2-12.1-.6-24.7-1-37.6-1-46.1 0-96 4.5-143.1 15.8"/></defs><clipPath id="E"><use xlink:href="#D"/></clipPath><linearGradient id="F" gradientUnits="userSpaceOnUse" x1="0" y1="622.395" x2="1" y2="622.395" gradientTransform="matrix(434.7703 -180.2035 -180.2035 -434.7703 112219.2031 270969.6875)"><stop offset="0" stop-color="#9dd6ed"/><stop offset=".218" stop-color="#6ebc8a"/><stop offset=".386" stop-color="#62b190"/><stop offset=".687" stop-color="#4494a2"/><stop offset="1" stop-color="#1d70b7"/></linearGradient><path d="M-20.5 226.7L429.4 40.3l125.8 303.5-449.9 186.5z" clip-path="url(#E)" fill="url(#F)"/><defs><path id="G" d="M276.7 0C217.3.2 153.3 34 131 117.7c-41.3 155 33.1 264.5 107.6 337.8 76 74.8 206.3 98.4 245 50 21.3-26.6 23.2-47.7 13.9-76.8-21.5-67.1 17.3 49.6-43.1 57.3-84.1 10.8-142.9-36.5-189.8-107-49.1-73.7-76.7-143.2-71-206.9C197 133 208.5 68.6 231.9 47c34.7-32 90.9-35.1 116.8-20.5 28.3 15.9 58.6 44.9 22.4 8.5-22-22-56.9-35-93.6-35.1h-.8z"/></defs><clipPath id="H"><use xlink:href="#G"/></clipPath><linearGradient id="I" gradientUnits="userSpaceOnUse" x1="0" y1="622.398" x2="1" y2="622.398" gradientTransform="matrix(355.9158 -143.186 -143.186 -355.9158 89264.6719 221861.2031)"><stop offset="0" stop-color="#7384c0"/><stop offset=".029" stop-color="#6d80bd"/><stop offset=".163" stop-color="#586fb3"/><stop offset=".25" stop-color="#5069af"/><stop offset=".336" stop-color="#5069af"/><stop offset=".426" stop-color="#5860a9"/><stop offset=".795" stop-color="#764192"/><stop offset="1" stop-color="#81358a"/></linearGradient><path d="M-102.1 77.2l557.7-224.4 251 623.9-557.7 224.4z" clip-path="url(#H)" fill="url(#I)"/></svg>